<?xml version="1.0" encoding="utf-8"?>
<!-- Generator: Adobe Illustrator 24.0.1, SVG Export Plug-In . SVG Version: 6.00 Build 0)  -->
<svg version="1.1" id="Capa_1" xmlns="http://www.w3.org/2000/svg" xmlns:xlink="http://www.w3.org/1999/xlink" x="0px" y="0px"
	 viewBox="0 0 512 512" style="enable-background:new 0 0 512 512;" xml:space="preserve">
<g>
	<g>
		<g>
			<path d="M225.8,0.6C101.3,0.6,0,101.6,0,225.8S101.3,451,225.8,451s225.8-101,225.8-225.2S350.3,0.6,225.8,0.6z M225.8,413.9
				C121.7,413.9,37,329.5,37,225.8C37,122,121.7,37.6,225.8,37.6S414.5,122,414.5,225.8C414.5,329.5,329.9,413.9,225.8,413.9z"/>
		</g>
	</g>
	<g>
		<g>
			<path d="M506.5,479.8L385,358.9c-7.2-7.2-19-7.2-26.2,0.1c-7.2,7.2-7.2,19,0.1,26.2L480.4,506c3.6,3.6,8.3,5.4,13.1,5.4
				c4.8,0,9.5-1.8,13.1-5.5C513.8,498.7,513.8,487,506.5,479.8z"/>
		</g>
	</g>
	<g>
		<g>
			<path d="M299.7,273L178.2,152.1c-7.2-7.2-19-7.2-26.2,0.1c-7.2,7.2-7.2,19,0.1,26.2l121.5,120.8c3.6,3.6,8.3,5.4,13.1,5.4
				c4.8,0,9.5-1.8,13.1-5.5C307,291.9,307,280.2,299.7,273z"/>
		</g>
	</g>
	<g>
		<g>
			<path d="M178.6,299.5L299.5,178c7.2-7.2,7.2-19-0.1-26.2c-7.2-7.2-19-7.2-26.2,0.1L152.4,273.4c-3.6,3.6-5.4,8.3-5.4,13.1
				c0,4.8,1.8,9.5,5.5,13.1C159.7,306.8,171.4,306.8,178.6,299.5z"/>
		</g>
	</g>
</g>
</svg>
