<?xml version="1.0" encoding="utf-8"?>
<!-- Generator: Adobe Illustrator 24.0.1, SVG Export Plug-In . SVG Version: 6.00 Build 0)  -->
<svg version="1.1" id="Capa_1" xmlns="http://www.w3.org/2000/svg" xmlns:xlink="http://www.w3.org/1999/xlink" x="0px" y="0px"
	 viewBox="0 0 512 512" style="enable-background:new 0 0 512 512;" xml:space="preserve">
<path d="M493.9,127.9H18c-9.9,0-18-8.1-18-18l0-2c0-9.9,8.1-18,18-18h475.9c9.9,0,18,8.1,18,18v2
	C511.9,119.8,503.9,127.9,493.9,127.9z"/>
<path d="M416,275H96c-9.9,0-18-8.1-18-18v-2c0-9.9,8.1-18,18-18h320c9.9,0,18,8.1,18,18v2C434,266.9,425.9,275,416,275z"/>
<path d="M338,422H173.9c-9.9,0-18-8.1-18-18v-2c0-9.9,8.1-18,18-18H338c9.9,0,18,8.1,18,18v2C356,413.9,347.9,422,338,422z"/>
</svg>
